<svg xmlns="http://www.w3.org/2000/svg" viewBox="0 0 500 300">
  <!-- Background -->
  <rect width="500" height="300" fill="#fefefe" />
  <path d="M 0,300 L 500,300 L 500,200 C 350,230 150,180 0,240 Z" fill="#f0fdfa" opacity="0.8" />
  
  <!-- Search box -->
  <rect x="100" y="40" width="300" height="50" rx="25" fill="white" stroke="#e5e7eb" stroke-width="2" />
  <circle cx="130" cy="65" r="15" fill="none" stroke="#0e7490" stroke-width="2" />
  <line x1="140" y1="76" x2="150" y2="86" stroke="#0e7490" stroke-width="2" stroke-linecap="round" />
  <text x="160" y="70" font-family="Arial" font-size="16" fill="#0e7490">Search for a location...</text>
  
  <!-- Location results -->
  <g transform="translate(100, 110)">
    <!-- Result 1 -->
    <rect x="0" y="0" width="300" height="50" rx="5" fill="white" stroke="#e5e7eb" stroke-width="1" />
    <circle cx="25" cy="25" r="15" fill="#0e7490" opacity="0.1" />
    <path d="M 25,16 C 29,16 33,20 33,24 C 33,28 25,38 25,38 C 25,38 17,28 17,24 C 17,20 21,16 25,16 Z" fill="#0891b2" />
    <circle cx="25" cy="24" r="3" fill="white" />
    <text x="50" y="20" font-family="Arial" font-size="14" fill="#333333">Vadodara Junction</text>
    <text x="50" y="38" font-family="Arial" font-size="12" fill="#6b7280">Railway Station, Vadodara, Gujarat</text>
    <line x1="0" y1="50" x2="300" y2="50" stroke="#e5e7eb" stroke-width="1" />
    
    <!-- Result 2 -->
    <rect x="0" y="50" width="300" height="50" rx="0" fill="white" stroke="#e5e7eb" stroke-width="1" />
    <circle cx="25" cy="75" r="15" fill="#0e7490" opacity="0.1" />
    <path d="M 25,66 C 29,66 33,70 33,74 C 33,78 25,88 25,88 C 25,88 17,78 17,74 C 17,70 21,66 25,66 Z" fill="#0891b2" />
    <circle cx="25" cy="74" r="3" fill="white" />
    <text x="50" y="70" font-family="Arial" font-size="14" fill="#333333">Alkapuri</text>
    <text x="50" y="88" font-family="Arial" font-size="12" fill="#6b7280">Commercial Area, Vadodara, Gujarat</text>
    <line x1="0" y1="100" x2="300" y2="100" stroke="#e5e7eb" stroke-width="1" />
    
    <!-- Result 3 (selected) -->
    <rect x="0" y="100" width="300" height="50" rx="0" fill="#ecfdf5" stroke="#e5e7eb" stroke-width="1" />
    <circle cx="25" cy="125" r="15" fill="#0e7490" opacity="0.1" />
    <path d="M 25,116 C 29,116 33,120 33,124 C 33,128 25,138 25,138 C 25,138 17,128 17,124 C 17,120 21,116 25,116 Z" fill="#0891b2" />
    <circle cx="25" cy="124" r="3" fill="white" />
    <text x="50" y="120" font-family="Arial" font-size="14" font-weight="bold" fill="#064e3b">MS University</text>
    <text x="50" y="138" font-family="Arial" font-size="12" fill="#047857">University Road, Vadodara, Gujarat</text>
    <circle cx="280" cy="125" r="10" fill="#10b981" />
    <path d="M 275,125 L 280,130 L 285,120" stroke="white" stroke-width="2" fill="none" stroke-linecap="round" stroke-linejoin="round" />
  </g>
  
  <!-- Saved locations section -->
  <text x="100" y="230" font-family="Arial" font-size="16" font-weight="bold" fill="#374151">Saved Places</text>
  
  <!-- Saved location bubbles -->
  <g transform="translate(100, 250)">
    <!-- Home -->
    <g transform="translate(0, 0)">
      <rect x="0" y="0" width="70" height="30" rx="15" fill="#bfdbfe" />
      <circle cx="15" cy="15" r="8" fill="#3b82f6" />
      <path d="M 15,10 L 10,15 L 15,20 L 20,15 Z" fill="white" />
      <text x="30" y="19" font-family="Arial" font-size="12" fill="#1e40af">Home</text>
    </g>
    
    <!-- Work -->
    <g transform="translate(80, 0)">
      <rect x="0" y="0" width="70" height="30" rx="15" fill="#dbeafe" />
      <circle cx="15" cy="15" r="8" fill="#2563eb" />
      <path d="M 12,10 L 18,10 L 18,20 L 12,20 Z M 11,13 L 19,13" fill="none" stroke="white" stroke-width="1.5" />
      <text x="30" y="19" font-family="Arial" font-size="12" fill="#1e40af">Work</text>
    </g>
    
    <!-- Mall -->
    <g transform="translate(160, 0)">
      <rect x="0" y="0" width="70" height="30" rx="15" fill="#e0e7ff" />
      <circle cx="15" cy="15" r="8" fill="#4f46e5" />
      <path d="M 11,12 L 19,12 L 19,18 L 11,18 Z M 13,10 L 13,12 M 17,10 L 17,12" fill="none" stroke="white" stroke-width="1.5" />
      <text x="30" y="19" font-family="Arial" font-size="12" fill="#3730a3">Mall</text>
    </g>
    
    <!-- Add new -->
    <g transform="translate(240, 0)">
      <rect x="0" y="0" width="30" height="30" rx="15" fill="#f3f4f6" stroke="#d1d5db" stroke-width="1" stroke-dasharray="2,2" />
      <text x="15" y="19" font-family="Arial" font-size="16" fill="#9ca3af" text-anchor="middle">+</text>
    </g>
  </g>
</svg>